<?xml version="1.0" encoding="utf-8"?>
<!-- Generator: Adobe Illustrator 22.1.0, SVG Export Plug-In . SVG Version: 6.00 Build 0)  -->
<svg version="1.2" baseProfile="tiny" id="Layer_1" xmlns="http://www.w3.org/2000/svg" xmlns:xlink="http://www.w3.org/1999/xlink"
	 x="0px" y="0px" viewBox="0 0 361.5 87.6" xml:space="preserve">
<g>
	<path d="M73.8,2.4c1.1-0.2,2.5-0.3,4.3-0.3c2.2,0,3.9,0.5,4.9,1.5c1,0.8,1.5,2.1,1.5,3.7c0,1.6-0.5,2.8-1.4,3.7
		c-1.2,1.3-3.1,1.9-5.4,1.9c-0.7,0-1.3,0-1.8-0.2v7h-2.3V2.4z M76.1,10.9c0.5,0.1,1.1,0.2,1.9,0.2c2.7,0,4.4-1.3,4.4-3.7
		c0-2.3-1.6-3.4-4.1-3.4c-1,0-1.7,0.1-2.1,0.2V10.9z"/>
	<path d="M91.9,6.4c0.9-0.2,2.3-0.3,3.7-0.3c1.9,0,3.3,0.3,4.2,1.1c0.7,0.6,1.2,1.6,1.2,2.7c0,1.7-1.2,2.9-2.4,3.4v0.1
		c1,0.4,1.5,1.3,1.9,2.6c0.4,1.7,0.8,3.2,1.1,3.8h-2.5c-0.2-0.4-0.5-1.5-0.9-3.2c-0.4-1.8-1-2.3-2.4-2.4h-1.2v5.5h-2.4V6.4z
		 M94.3,12.4h1.5c1.7,0,2.7-0.9,2.7-2.2c0-1.5-1-2.2-2.6-2.2c-0.8,0-1.3,0.1-1.5,0.1V12.4z"/>
	<path d="M119.1,12.9c0,4.5-2.7,7.1-6.5,7.1c-3.8,0-6.2-2.9-6.2-6.9c0-4.1,2.6-7.1,6.4-7.1C116.8,6,119.1,9,119.1,12.9z M109,13.1
		c0,2.7,1.4,4.9,3.7,4.9c2.4,0,3.7-2.2,3.7-5c0-2.5-1.3-4.9-3.7-4.9C110.3,8,109,10.3,109,13.1z"/>
	<path d="M127.7,19.8l-4.4-13.5h2.7l1.8,6.1c0.5,1.7,1,3.3,1.3,4.9h0c0.4-1.6,0.8-3.2,1.4-4.9l2-6.2h2.6l-4.7,13.5H127.7z"/>
	<path d="M143.1,6.3v13.5h-2.5V6.3H143.1z"/>
	<path d="M149.8,19.8V6.3h2.8l3.5,5.8c0.9,1.5,1.7,3.1,2.3,4.5h0c-0.2-1.8-0.2-3.5-0.2-5.6V6.3h2.3v13.5h-2.5l-3.5-5.9
		c-0.9-1.5-1.8-3.1-2.4-4.7l-0.1,0c0.1,1.7,0.1,3.5,0.1,5.7v4.8H149.8z"/>
	<path d="M176.9,19.4c-0.6,0.3-1.9,0.6-3.5,0.6c-4.3,0-6.9-2.7-6.9-6.8c0-4.4,3.1-7.1,7.2-7.1c1.6,0,2.8,0.3,3.3,0.6l-0.5,2
		c-0.6-0.3-1.5-0.5-2.6-0.5c-2.7,0-4.7,1.7-4.7,5c0,3,1.7,4.9,4.7,4.9c1,0,2-0.2,2.7-0.5L176.9,19.4z"/>
	<path d="M185.1,6.3v13.5h-2.5V6.3H185.1z"/>
	<path d="M199.4,13.8h-5.1v4h5.7v2h-8.1V6.3h7.8v2h-5.4v3.5h5.1V13.8z"/>
	<path d="M223,2.2h9.4v1.9h-7.2v5.8h6.6v1.9h-6.6v7.9H223V2.2z"/>
	<path d="M239.5,6.3h2.5v11.4h5.5v2.1h-8V6.3z"/>
	<path d="M260.6,13.8h-5.1v4h5.7v2H253V6.3h7.8v2h-5.4v3.5h5.1V13.8z"/>
	<path d="M270.5,19.8l-4.4-13.5h2.7l1.8,6.1c0.5,1.7,1,3.3,1.3,4.9h0c0.4-1.6,0.8-3.2,1.4-4.9l2-6.2h2.6l-4.7,13.5H270.5z"/>
	<path d="M294.8,12.9c0,4.5-2.7,7.1-6.5,7.1c-3.8,0-6.2-2.9-6.2-6.9c0-4.1,2.6-7.1,6.4-7.1C292.5,6,294.8,9,294.8,12.9z M284.8,13.1
		c0,2.7,1.4,4.9,3.7,4.9c2.4,0,3.7-2.2,3.7-5c0-2.5-1.3-4.9-3.7-4.9C286.1,8,284.8,10.3,284.8,13.1z"/>
	<path d="M300.9,6.3h2.5v11.4h5.5v2.1h-8V6.3z"/>
	<path d="M317.7,15.9l-1.2,3.8H314l4.3-13.5h3.1l4.4,13.5h-2.6l-1.2-3.8H317.7z M321.6,14.1l-1.1-3.3c-0.3-0.8-0.5-1.7-0.7-2.5h0
		c-0.2,0.8-0.4,1.7-0.6,2.5l-1,3.3H321.6z"/>
	<path d="M331.4,19.8V6.3h2.8l3.5,5.8c0.9,1.5,1.7,3.1,2.3,4.5h0c-0.2-1.8-0.2-3.5-0.2-5.6V6.3h2.3v13.5h-2.5l-3.5-5.9
		c-0.9-1.5-1.8-3.1-2.4-4.7l-0.1,0c0.1,1.7,0.1,3.5,0.1,5.7v4.8H331.4z"/>
	<path d="M348.9,6.4c1.1-0.2,2.5-0.3,3.9-0.3c2.5,0,4.3,0.5,5.5,1.6c1.3,1.1,2.1,2.7,2.1,5c0,2.4-0.8,4.2-2.1,5.4
		c-1.3,1.2-3.5,1.8-6.1,1.8c-1.4,0-2.5-0.1-3.3-0.2V6.4z M351.3,17.9c0.3,0.1,0.9,0.1,1.4,0.1c3.2,0,5.1-1.7,5.1-5.2
		c0-3-1.7-4.7-4.8-4.7c-0.8,0-1.3,0.1-1.7,0.1V17.9z"/>
</g>
<g>
	<path d="M75.2,39.4l-2.8-10.8h0.8l1.6,6.1c0.4,1.4,0.7,2.7,0.9,3.7h0c0.2-1,0.6-2.3,1-3.7l1.8-6.1h0.7l1.6,6
		c0.3,1.3,0.7,2.7,0.9,3.7h0c0.2-1.2,0.6-2.3,1-3.7l1.8-6.1h0.8L82,39.4h-0.7l-1.6-6.2c-0.4-1.6-0.7-2.7-0.8-3.7h0
		c-0.2,1-0.5,2.1-1,3.6l-1.8,6.2H75.2z"/>
	<path d="M99.6,34h-4.3v4.7h4.8v0.6h-5.6V28.6h5.3v0.6h-4.6v4.1h4.3V34z"/>
	<path d="M117.4,38.9c-0.5,0.2-1.7,0.6-3.1,0.6c-1.4,0-2.7-0.4-3.8-1.4c-0.9-0.9-1.5-2.3-1.5-4c0-3,2-5.5,5.6-5.5
		c1.2,0,2.1,0.3,2.5,0.5l-0.2,0.6c-0.6-0.3-1.3-0.5-2.3-0.5c-3,0-4.8,1.9-4.8,4.9c0,3,1.8,4.8,4.6,4.8c1.1,0,1.9-0.2,2.3-0.4v-3.8
		h-2.5v-0.6h3.3V38.9z"/>
	<path d="M132.5,34h-4.3v4.7h4.8v0.6h-5.6V28.6h5.3v0.6h-4.6v4.1h4.3V34z"/>
	<path d="M142.6,39.4V28.6h0.7l4.2,6.4c0.9,1.3,1.5,2.4,2,3.4l0,0c-0.1-1.5-0.1-2.7-0.1-4.4v-5.4h0.8v10.8h-0.7l-4.1-6.3
		c-0.8-1.2-1.5-2.4-2.1-3.5l0,0c0.1,1.3,0.1,2.5,0.1,4.3v5.5H142.6z"/>
	<path d="M177.3,34H173v4.7h4.8v0.6h-5.6V28.6h5.3v0.6H173v4.1h4.3V34z"/>
	<path d="M187.4,39.4V28.6h0.7l4.2,6.4c0.9,1.3,1.5,2.4,2,3.4l0,0c-0.1-1.5-0.1-2.7-0.1-4.4v-5.4h0.8v10.8h-0.7l-4.1-6.3
		c-0.8-1.2-1.5-2.4-2.1-3.5l0,0c0.1,1.3,0.1,2.5,0.1,4.3v5.5H187.4z"/>
	<path d="M219.3,39.4l-3.6-10.8h0.8l1.9,5.8c0.5,1.6,1,2.9,1.3,4.1h0c0.3-1.2,0.8-2.6,1.4-4.1l2.1-5.8h0.8l-4,10.8H219.3z"/>
	<path d="M233.5,35.6l-1.3,3.8h-0.8l3.9-10.8h0.7l3.9,10.8h-0.8l-1.4-3.8H233.5z M237.5,35l-1.3-3.6c-0.3-0.8-0.4-1.3-0.6-1.9h0
		c-0.2,0.6-0.3,1.2-0.6,1.9l-1.3,3.6H237.5z"/>
	<path d="M251,35.6l-1.3,3.8h-0.8l3.9-10.8h0.7l3.9,10.8h-0.8l-1.4-3.8H251z M255.1,35l-1.3-3.6c-0.3-0.8-0.4-1.3-0.6-1.9h0
		c-0.2,0.6-0.3,1.2-0.6,1.9l-1.3,3.6H255.1z"/>
	<path d="M266.8,28.8c0.7-0.1,1.6-0.2,2.3-0.2c1.4,0,2.3,0.3,2.9,0.9c0.5,0.4,0.8,1.2,0.8,1.9c0,1.5-0.9,2.4-2.1,2.8v0
		c0.9,0.3,1.4,1.1,1.7,2.3c0.4,1.7,0.6,2.5,0.8,2.9h-0.8c-0.2-0.3-0.4-1.3-0.7-2.6c-0.3-1.6-1-2.3-2.4-2.3h-1.7v4.9h-0.8V28.8z
		 M267.6,33.8h1.7c1.7,0,2.8-0.9,2.8-2.4c0-1.6-1.2-2.3-2.9-2.3c-0.7,0-1.3,0.1-1.6,0.1V33.8z"/>
	<path d="M284.5,39.4l-2.8-10.8h0.8l1.6,6.1c0.4,1.4,0.7,2.7,0.9,3.7h0c0.2-1,0.6-2.3,1-3.7l1.8-6.1h0.7l1.6,6
		c0.3,1.3,0.7,2.7,0.9,3.7h0c0.2-1.2,0.6-2.3,1-3.7l1.8-6.1h0.8l-3.2,10.8h-0.7l-1.6-6.2c-0.4-1.6-0.7-2.7-0.8-3.7h0
		c-0.2,1-0.5,2.1-1,3.6l-1.8,6.2H284.5z"/>
	<path d="M308.8,34h-4.3v4.7h4.8v0.6h-5.6V28.6h5.3v0.6h-4.6v4.1h4.3V34z"/>
	<path d="M326.7,38.9c-0.5,0.2-1.7,0.6-3.1,0.6c-1.4,0-2.7-0.4-3.8-1.4c-0.9-0.9-1.5-2.3-1.5-4c0-3,2-5.5,5.6-5.5
		c1.2,0,2.1,0.3,2.5,0.5l-0.2,0.6c-0.6-0.3-1.3-0.5-2.3-0.5c-3,0-4.8,1.9-4.8,4.9c0,3,1.8,4.8,4.6,4.8c1.1,0,1.9-0.2,2.3-0.4v-3.8
		h-2.5v-0.6h3.3V38.9z"/>
	<path d="M341.8,34h-4.3v4.7h4.8v0.6h-5.6V28.6h5.3v0.6h-4.6v4.1h4.3V34z"/>
	<path d="M351.8,39.4V28.6h0.7l4.2,6.4c0.9,1.3,1.5,2.4,2,3.4l0,0c-0.1-1.5-0.1-2.7-0.1-4.4v-5.4h0.8v10.8h-0.7l-4.1-6.3
		c-0.8-1.2-1.5-2.4-2.1-3.5l0,0c0.1,1.3,0.1,2.5,0.1,4.3v5.5H351.8z"/>
</g>
<rect x="20.2" y="14.6" fill="#FBB907" width="38.3" height="5.5"/>
<g>
	<path fill="#65B32E" d="M0,77.7c8.3,6,18.2,9.9,29.4,9.9c11.1,0,20.8-4,29.1-9.9v-8C50.9,76.9,41,81,29.3,81C17.4,81,8.8,77,0,69.8
		V77.7"/>
	<path fill="#0061AD" d="M1.3,62.5l13.6-12.3c0,0-7.8-3.3-12.8-5C0.8,44.7,0,43.5,0,42.2v-6.5C0,37,0.8,38,2.2,38.6
		C12.3,43,23.8,48.7,23.8,48.7L6.3,67.3C4.5,65.8,3.1,64.4,1.3,62.5"/>
	<path fill="#0061AD" d="M23.6,75c-3-0.5-5.4-1.3-7.7-2.2l7.5-12.5c0,0,7.2-13,22.4-12.8c1.4,0,5.4,0.3,5.4,0.3s0.9-6.3-13.6-6.9
		C25.3,40.4,20,33.5,17,30.7C13.5,27.6,3.5,23.5,2.4,23C1,22.6,0,21.2,0,19.7v-7.9c0,1.4,0.9,2.4,2.4,3c0.9,0.4,14,7.1,17.6,10.2
		c3.4,2.8,9.4,10.4,18.4,10.4h0.7c4.2,0,13-3.1,17.1-5c0.6-0.3,1.9-0.8,2.2-1.9l0,5.1c0,1.4-1,1.7-2.3,2.3c-2.3,1.1-7.5,2.6-7.5,2.6
		c0.5,0.2,0.8,0.3,1.2,0.4c6.6,3,6.9,9.2,6.9,9.2l0.4,4.9c0,0-5.6-1.1-10.2-1.1c-12.5,0-18.3,11.9-18.3,11.9L23.6,75"/>
</g>
</svg>
